<svg xmlns="http://www.w3.org/2000/svg" viewBox="0 0 1180 260" role="img" aria-labelledby="title">
  <title id="title">Logo horizontal MonLabAzure pour fond sombre</title>
  <g transform="translate(18 18) scale(.4375)">
    <path fill="#FFFFFF" d="M72 74c0-13 15-21 26-13l133 94c8 6 13 15 13 25v112c0 13-15 21-26 13L85 211c-8-6-13-15-13-25V74z"/>
    <path fill="#38BDF8" d="M440 74c0-13-15-21-26-13l-133 94c-8 6-13 15-13 25v112c0 13 15 21 26 13l133-94c8-6 13-15 13-25V74z"/>
    <path fill="#38BDF8" d="M72 352c0-10 5-20 14-26l132-93c11-8 26 0 26 13v174c0 11-9 20-20 20H92c-11 0-20-9-20-20v-68z"/>
    <path fill="#FFFFFF" d="M440 352c0-10-5-20-14-26l-132-93c-11-8-26 0-26 13v174c0 11 9 20 20 20h132c11 0 20-9 20-20v-68z"/>
  </g>
  <text x="270" y="172" font-family="Arial, Helvetica, sans-serif" font-size="126" font-weight="700" letter-spacing="-5" fill="#FFFFFF">MonLab<tspan fill="#38BDF8">Azure</tspan></text>
</svg>
